<?xml version="1.0" encoding="UTF-8"?>
<svg width="106px" height="70px" viewBox="0 0 106 70" version="1.1" xmlns="http://www.w3.org/2000/svg" xmlns:xlink="http://www.w3.org/1999/xlink">
    <!-- Generator: Sketch 57.1 (83088) - https://sketch.com -->
    <title>UI / Icons / Product Increment</title>
    <desc>Created with Sketch.</desc>
    <g id="Page-1" stroke="none" stroke-width="1" fill="none" fill-rule="evenodd">
        <g id="Main-Page---Artifact" transform="translate(-1010.000000, -782.000000)">
            <g id="Group-9" transform="translate(1010.000000, 782.000000)">
                <g id="UI-/-Icons-/-Product-Increment">
                    <g id="Laptop">
                        <path d="M0.782475556,66.8956522 C1.1120097,68.27009 2.39085739,69.3 3.92592593,69.3 L102.074074,69.3 C103.609143,69.3 104.88799,68.27009 105.217524,66.8956522 L0.782475556,66.8956522 Z" id="Rectangle" stroke="#FFFFFF" stroke-width="1.4"></path>
                        <path d="M49.0192806,66.5456522 C48.6866871,66.5456522 48.3931655,66.8888469 48.3931655,67.3369565 C48.3931655,67.7850662 48.6866871,68.1282609 49.0192806,68.1282609 L59.2684892,68.1282609 C59.6010827,68.1282609 59.8946043,67.7850662 59.8946043,67.3369565 C59.8946043,66.8888469 59.6010827,66.5456522 59.2684892,66.5456522 L49.0192806,66.5456522 Z" id="Rectangle" stroke="#FFFFFF" stroke-width="0.7"></path>
                        <path d="M6.48759431,0.7 C4.9756395,0.7 3.75035971,1.92354468 3.75035971,3.43236715 L3.75035971,62.763285 C3.75035971,64.2721075 4.9756395,65.4956522 6.48759431,65.4956522 L100.274996,65.4956522 C101.78695,65.4956522 103.01223,64.2721075 103.01223,62.763285 L103.01223,3.43236715 C103.01223,1.92354468 101.78695,0.7 100.274996,0.7 L6.48759431,0.7 Z" id="Rectangle" stroke="#FFFFFF" stroke-width="1.4"></path>
                        <path d="M10.3090861,6.02608696 C8.79179188,6.02608696 7.56330935,7.2479541 7.56330935,8.75330813 L7.56330935,58.2032136 C7.56330935,59.7085676 8.79179188,60.9304348 10.3090861,60.9304348 L96.4535039,60.9304348 C97.970798,60.9304348 99.1992806,59.7085676 99.1992806,58.2032136 L99.1992806,8.75330813 C99.1992806,7.2479541 97.970798,6.02608696 96.4535039,6.02608696 L10.3090861,6.02608696 Z" id="Rectangle" stroke="#FFFFFF" stroke-width="1.4"></path>
                        <g id="Laptop-Conent" transform="translate(30.503597, 18.260870)" fill-rule="nonzero">
                            <rect id="Rectangle" fill="#FFFFFF" x="12.9640288" y="12.9347826" width="10.676259" height="1.52173913" rx="0.760869565"></rect>
                            <path d="M31.9413846,8.41847826 L6.3381295,8.41847826 L6.3381295,33.2391304 L31.9413846,33.2391304 L31.9413846,8.41847826 Z M37.9898327,1 L15.124382,1 L8.2295199,6.41652526 L32.5294597,6.4184457 L37.9898327,1 Z" id="Combined-Shape" stroke="#FFFFFF" stroke-width="2"></path>
                            <polygon id="Path-6" stroke="#FFFFFF" stroke-width="2" points="33.649117 32.05677 38.8920863 25.3728648 39.2401584 3.0250375 33.649117 8.97309292"></polygon>
                            <path d="M40.1693995,1.62014731 L33.3295007,8.15716704 L37.8508023,14.8604611 C37.8927762,14.9226917 37.9416235,14.9799985 37.9964209,15.0312986 C38.3995996,15.4087445 39.0324209,15.3878839 39.4098668,14.9847053 L44.0320712,10.0473772 C44.3282045,9.73105468 44.3869247,9.26000261 44.1775114,8.88065988 L40.1693995,1.62014731 Z" id="Path-5" stroke="#FFFFFF" stroke-width="2" fill="#005CFF"></path>
                            <path d="M4.3381295,13.0284599 L4.3381295,13.6005435 L4.83128805,12.7385042 L4.3381295,13.0284599 Z M4.3381295,11.3004093 L6.20141241,8.11341598 L4.3381295,7.60869565 L4.3381295,11.3004093 Z" id="Path-7" stroke="#FFFFFF" stroke-width="2"></path>
                        </g>
                    </g>
                </g>
            </g>
        </g>
    </g>
</svg>