<?xml version="1.0" encoding="UTF-8"?>
<svg width="92px" height="120px" viewBox="0 0 92 120" version="1.1" xmlns="http://www.w3.org/2000/svg" xmlns:xlink="http://www.w3.org/1999/xlink">
    <!-- Generator: Sketch 57.1 (83088) - https://sketch.com -->
    <title>Avataaar/Default Copy</title>
    <desc>Created with Sketch.</desc>
    <defs>
        <path d="M45.4545455,0 C59.5127027,-2.5824416e-15 70.9090909,11.3963882 70.9090909,25.4545455 L70.9098206,28.1969678 C73.489201,28.6300667 75.4545455,30.873505 75.4545455,33.575974 L75.4545455,39.9025974 C75.4545455,42.6554722 73.4152031,44.9320331 70.7648588,45.3039396 C69.8103998,54.2845459 64.1847198,61.8706553 56.3638743,65.5860334 L56.3636558,73.9965629 C75.4329063,75.1196079 90.591628,90.7872634 90.9041689,110.063877 L90.9090909,110.671429 L0,110.671429 C-2.39467439e-15,91.1174282 15.2762344,75.1313836 34.5454351,73.9965629 L34.5452166,65.5860334 C26.7243711,61.8706553 21.0986911,54.2845459 20.143853,45.3033818 C17.4938878,44.9320331 15.4545455,42.6554722 15.4545455,39.9025974 L15.4545455,33.575974 C15.4545455,30.8731551 17.4203988,28.6294858 20.0002721,28.1967997 L20,25.4545455 C20,11.3963882 31.3963882,2.5824416e-15 45.4545455,0 Z" id="path-1"></path>
        <path d="M85.4545455,15.9440559 C85.4545455,16.3700434 85.4278357,16.7884839 85.3756278,17.1991714 C97.1251591,23.2058728 105.221829,35.3420827 105.449613,49.3911402 L105.454545,50 L14.5454545,50 C14.5454545,35.6933173 22.7054248,23.2924977 34.6251279,17.1977787 C34.5721643,16.7884839 34.5454545,16.3700434 34.5454545,15.9440559 C34.5454545,9.39246509 40.8633186,6.86196414 49.0908543,5.94131777 L49.0909091,14.5454545 C49.0909091,20.5703791 53.9750755,25.4545455 60,25.4545455 C66.0249245,25.4545455 70.9090909,20.5703791 70.9090909,14.5454545 L70.9090909,14.5454545 L70.9091297,5.94131598 C79.1366732,6.86196086 85.4545455,9.39246084 85.4545455,15.9440559 Z" id="path-3"></path>
        <path d="M15.9330959,6.87639872 C16.4130545,11.1908193 20.0654942,14.5454545 24.5,14.5454545 C28.9482043,14.5454545 32.6095034,11.1700618 33.0712611,6.83638846 C33.1084237,6.48761181 32.7196334,5.90909091 32.2323665,5.90909091 C25.4748975,5.90909091 20.2977606,5.90909091 16.8264296,5.90909091 C16.3363354,5.90909091 15.8850767,6.44474707 15.9330959,6.87639872 Z" id="path-5"></path>
        <rect id="path-7" x="0" y="0" width="120" height="127"></rect>
        <path d="M81.947923,18.1067566 C80.6925375,16.8276809 79.2349452,15.7420263 77.8172162,14.6533282 C77.5043968,14.4133398 77.1865565,14.1791342 76.880736,13.930015 C76.8112036,13.8734039 76.0989918,13.3648172 76.0137881,13.1776354 C75.8086906,12.7273338 75.9275193,13.0779573 75.9558191,12.5406085 C75.9915743,11.8611233 77.3811557,9.941977 76.3442568,9.50187146 C75.8881126,9.30829806 75.0744171,9.82342852 74.6368351,9.99356614 C73.7809941,10.3265367 72.9146549,10.6105052 72.0299055,10.8553634 C72.453794,10.0131974 73.2620122,8.32734359 71.7429515,8.7785583 C70.5595327,9.13009488 69.4567531,10.0338939 68.2675526,10.4590858 C68.6610112,9.81597168 70.2345413,7.82317012 68.8127042,7.71177411 C68.3702535,7.67707699 67.0827644,8.50463368 66.6063843,8.68116288 C65.1795262,9.20998956 63.7220862,9.55178661 62.2240221,9.82099363 C57.1302089,10.7363584 51.1735559,10.4753691 46.460725,12.7877494 C42.8273948,14.5703899 39.2397096,17.3364198 37.1408072,20.8586337 C35.1178274,24.253625 34.3611879,27.969108 33.9377558,31.8594462 C33.6270665,34.7145016 33.6018097,37.6657349 33.7471125,40.5311386 C33.7945831,41.4699391 33.9004792,45.7974914 35.2683032,44.4869143 C35.9497808,43.8339085 35.9447599,41.1970797 36.1163845,40.304542 C36.4579602,38.5287496 36.7867553,36.7450439 37.3562509,35.0260147 C38.359829,31.9967129 39.5437043,28.7698809 42.0438249,26.6834885 C43.6482414,25.344758 44.7749085,23.5353338 46.3102491,22.1847332 C46.9999428,21.5781424 46.4736577,21.6412972 47.5825233,21.7208875 C48.3274472,21.7743028 49.0757185,21.794695 49.822164,21.8141741 C51.5489087,21.8589151 53.2783921,21.8475016 55.0055933,21.8535888 C58.4840352,21.8660676 61.9461971,21.9150697 65.4212918,21.7335185 C66.9656093,21.6528629 68.5141869,21.6091872 70.0543963,21.4667464 C70.9148018,21.3871561 72.4414699,20.8373285 73.1497258,21.2574984 C73.7978827,21.641906 74.4709921,22.8970894 74.9364175,23.4111546 C76.0360019,24.6260103 77.3470742,25.5538538 78.6328896,26.5500263 C81.3140682,28.6271358 82.6677423,31.2359633 83.4820465,34.48197 C84.2933076,37.7159544 84.0658441,40.716268 85.0700308,43.8988155 C85.2466764,44.4583826 85.7139275,45.4229016 86.2899655,44.5583651 C86.3969266,44.3978148 86.3692354,43.5152019 86.3692354,43.007343 C86.3692354,40.9573156 86.889891,39.4191568 86.8834098,37.3557436 C86.8577875,31.0819568 86.6543636,22.9011983 81.947923,18.1067566 Z" id="path-9"></path>
    </defs>
    <g id="Page-1" stroke="none" stroke-width="1" fill="none" fill-rule="evenodd">
        <g id="Main-Page---Artifact" transform="translate(-674.000000, -221.000000)">
            <g id="Avatar" transform="translate(620.000000, 16.000000)">
                <g transform="translate(0.000000, 162.000000)" id="Avataaar/Default">
                    <g transform="translate(40.000000, 36.000000)">
                        <g id="Body" stroke-width="1" fill-rule="evenodd" transform="translate(14.545455, 16.328571)">
                            <mask id="mask-2" fill="white">
                                <use xlink:href="#path-1"></use>
                            </mask>
                            <use fill="#D0C6AC" xlink:href="#path-1"></use>
                            <g id="Skin/ðŸ‘¶ðŸ½-03-Brown" mask="url(#mask-2)" fill="#FFDBB4">
                                <g transform="translate(-14.545455, 0.000000)" id="Color">
                                    <rect x="0" y="0" width="120" height="111"></rect>
                                </g>
                            </g>
                            <path d="M20,42.5811688 C20,56.6393261 31.3963882,68.0357143 45.4545455,68.0357143 C59.5127027,68.0357143 70.9090909,56.6393261 70.9090909,42.5811688 L70.9090909,42.5811688 L70.9090909,46.2097403 C70.9090909,60.2678975 59.5127027,71.6642857 45.4545455,71.6642857 C31.3963882,71.6642857 20,60.2678975 20,46.2097403 Z" id="Neck-Shadow" fill-opacity="0.100000001" fill="#000000" mask="url(#mask-2)"></path>
                        </g>
                        <g id="Clothing/Hoodie" transform="translate(0.000000, 77.107143)">
                            <mask id="mask-4" fill="white">
                                <use xlink:href="#path-3"></use>
                            </mask>
                            <use id="Hoodie" fill="#B7C1DB" fill-rule="evenodd" xlink:href="#path-3"></use>
                            <g id="Color/Palette/Heather" mask="url(#mask-4)" fill="#3C4F5C" fill-rule="evenodd">
                                <rect id="ðŸ–Color" x="0" y="0" width="120" height="50"></rect>
                            </g>
                            <path d="M46.3632877,28.0630527 L46.3636364,50 L43.1818182,50 L43.1816723,26.4318508 C44.1833168,27.0271839 45.2482554,27.5729478 46.3632877,28.0630527 Z M76.81878,26.431582 L76.8181818,44.7727273 C76.8181818,45.6513621 76.1059076,46.3636364 75.2272727,46.3636364 C74.3486379,46.3636364 73.6363636,45.6513621 73.6363636,44.7727273 L73.6367123,28.0630527 C74.7519124,27.572874 75.8170038,27.0270196 76.81878,26.431582 Z" id="Straps" fill="#F4F4F4" fill-rule="evenodd" mask="url(#mask-4)"></path>
                            <path d="M60,30.9090909 C72.8085433,30.9090909 85.4545455,23.3949888 85.4545455,14.1258741 C85.4545455,9.86555295 82.783007,7.30556848 78.6520548,5.78290118 C85.4949592,7.07736741 90.2272727,9.65542666 90.2272727,14.6853147 C90.2272727,23.6454589 75.2101452,30.9090909 60,30.9090909 L60,30.9090909 Z M60,30.9090909 L59.5437684,30.9069174 C44.491014,30.7636486 29.7727273,23.5558574 29.7727273,14.6853147 C29.7727273,9.65493837 34.5059596,7.07686689 41.3492626,5.78308844 C37.217443,7.30513727 34.5454545,9.86519413 34.5454545,14.1258741 C34.5454545,23.3949888 47.1914567,30.9090909 60,30.9090909 Z" id="Shadow" fill-opacity="0.16" fill="#000000" fill-rule="evenodd" mask="url(#mask-4)"></path>
                        </g>
                        <g id="Face" stroke-width="1" fill-rule="evenodd" transform="translate(34.545455, 37.192857)">
                            <g id="Mouth/Smile" transform="translate(0.909091, 23.585714)">
                                <mask id="mask-6" fill="white">
                                    <use xlink:href="#path-5"></use>
                                </mask>
                                <use id="Mouth" fill-opacity="0.699999988" fill="#000000" fill-rule="evenodd" xlink:href="#path-5"></use>
                                <path d="M21.3308081,0.909090909 L28.1228956,0.909090909 C30.1312038,0.909090909 31.7592593,2.53714636 31.7592593,4.54545455 C31.7592593,6.55376273 30.1312038,8.18181818 28.1228956,8.18181818 L21.3308081,8.18181818 C19.3224999,8.18181818 17.6944444,6.55376273 17.6944444,4.54545455 C17.6944444,2.53714636 19.3224999,0.909090909 21.3308081,0.909090909 Z" id="Teeth" fill="#FFFFFF" fill-rule="evenodd" mask="url(#mask-6)"></path>
                                <g id="Tongue" stroke-width="1" fill-rule="evenodd" mask="url(#mask-6)" fill="#FF4F6D">
                                    <g transform="translate(17.240741, 10.909091)">
                                        <ellipse cx="4.99074074" cy="5" rx="4.99074074" ry="5"></ellipse>
                                        <ellipse cx="9.52777778" cy="5" rx="4.99074074" ry="5"></ellipse>
                                    </g>
                                </g>
                            </g>
                            <g id="Nose/Default" transform="translate(12.727273, 18.142857)" fill="#000000" fill-opacity="0.16">
                                <path d="M7.14285714,3.66666667 C7.14285714,5.69171075 9.5413317,7.33333333 12.5,7.33333333 L12.5,7.33333333 C15.4586683,7.33333333 17.8571429,5.69171075 17.8571429,3.66666667" id="Nose"></path>
                            </g>
                            <g id="Eyes/Default-ðŸ˜€" transform="translate(0.000000, 3.628571)" fill="#000000" fill-opacity="0.599999964">
                                <ellipse id="Eye" cx="13.6607143" cy="10" rx="2.73214286" ry="2.72727273"></ellipse>
                                <ellipse id="Eye" cx="37.3392857" cy="10" rx="2.73214286" ry="2.72727273"></ellipse>
                            </g>
                            <g id="Eyebrow/Outline/Default" fill="#000000" fill-opacity="0.599999964">
                                <g id="I-Browse" transform="translate(5.464286, 2.750000)">
                                    <path d="M1.65305816,5.11434767 C3.43574023,2.58952225 8.3229813,1.17371705 12.5328068,2.21429104 C13.0212675,2.33502752 13.5144839,2.03434006 13.6344363,1.5426868 C13.7543888,1.05103355 13.4556539,0.554593581 12.9671932,0.433857105 C8.07820114,-0.774591533 2.41890251,0.86487423 0.168370416,4.05231899 C-0.122996348,4.46498383 -0.0268371069,5.037258 0.383148091,5.33052912 C0.79313329,5.62380025 1.36169139,5.52701251 1.65305816,5.11434767 Z" id="Eyebrow" fill-rule="nonzero"></path>
                                    <path d="M28.0637724,5.11434767 C29.8464545,2.58952225 34.7336956,1.17371705 38.9435211,2.21429104 C39.4319818,2.33502752 39.9251982,2.03434006 40.0451506,1.5426868 C40.1651031,1.05103355 39.8663682,0.554593581 39.3779075,0.433857105 C34.4889154,-0.774591533 28.8296168,0.86487423 26.5790847,4.05231899 C26.2877179,4.46498383 26.3838772,5.037258 26.7938624,5.33052912 C27.2038476,5.62380025 27.7724057,5.52701251 28.0637724,5.11434767 Z" id="Eyebrow" fill-rule="nonzero" transform="translate(33.241141, 2.767966) scale(-1, 1) translate(-33.241141, -2.767966) "></path>
                                </g>
                            </g>
                        </g>
                        <g id="Top" stroke-width="1" fill-rule="evenodd">
                            <mask id="mask-8" fill="white">
                                <use xlink:href="#path-7"></use>
                            </mask>
                            <g id="Mask"></g>
                            <g id="Top/Short-Hair/Short-Flat" mask="url(#mask-8)">
                                <g transform="translate(-0.454545, 0.000000)">
                                    <g id="Facial-Hair/-Blank" stroke="none" fill="none" transform="translate(22.289474, 32.657143)"></g>
                                    <mask id="mask-10" fill="white">
                                        <use xlink:href="#path-9"></use>
                                    </mask>
                                    <use id="Short-Hair" stroke="none" fill="#1F3140" fill-rule="evenodd" xlink:href="#path-9"></use>
                                    <g id="Color/Hair/Black" stroke="none" fill="none" mask="url(#mask-10)" fill-rule="evenodd">
                                        <g transform="translate(0.454887, 0.000000)" fill="#2C1B18" id="Color">
                                            <rect x="0" y="0" width="120" height="127"></rect>
                                        </g>
                                    </g>
                                    <g id="Top/_Resources/Blank" stroke="none" fill="none" mask="url(#mask-10)">
                                        <g transform="translate(28.203008, 38.553571)"></g>
                                    </g>
                                </g>
                            </g>
                        </g>
                    </g>
                </g>
            </g>
        </g>
    </g>
</svg>