<?xml version="1.0" encoding="UTF-8"?>
<svg width="146px" height="64px" viewBox="0 0 146 64" version="1.1" xmlns="http://www.w3.org/2000/svg" xmlns:xlink="http://www.w3.org/1999/xlink">
    <!-- Generator: Sketch 57.1 (83088) - https://sketch.com -->
    <title>Group 2</title>
    <desc>Created with Sketch.</desc>
    <g id="Dynamic-Scrum" stroke="none" stroke-width="1" fill="none" fill-rule="evenodd">
        <g id="Product-Backlog" transform="translate(-644.000000, -533.000000)">
            <g id="Group-2" transform="translate(640.000000, 533.000000)">
                <path d="M70.5545195,14.087383 C70.5929832,14.3179673 70.6495203,14.6856428 70.7213501,15.0499273 C70.7329355,15.1075734 70.8075458,15.1671572 70.8663999,15.1947691 C70.919693,15.219959 71.0424988,15.2180214 71.0466696,15.2025199 C71.2755981,14.329109 71.6463326,13.4808881 71.533722,12.5449869 C71.5207463,12.4374455 71.3548426,12.3323261 71.2403783,12.259663 C71.0832796,12.1589035 70.9748398,12.2339887 70.8761317,12.3953008 C70.582788,12.8739087 70.68474,13.4271173 70.5545195,14.087383 M71.6834035,14.2585817 C71.6462835,14.49417 71.6233974,14.5634606 71.6273048,14.6282809 C71.6348404,14.7592626 71.6317704,14.9362891 71.6808916,15.0024505 C71.72164,15.0569889 71.8617473,15.0265904 71.9055657,14.9532765 C72.1441946,14.5567551 72.3702642,14.1410111 72.5918681,13.7194557 C72.6610845,13.5875799 72.6197779,13.4668801 72.5366067,13.3569091 C72.1520094,12.8481815 71.8731903,12.9344596 71.7676912,13.6108258 C71.7258265,13.8808359 71.6965211,14.1557633 71.6834035,14.2585817 M76.2342856,15.653583 C76.2169902,15.5976136 76.2092738,15.5147115 76.1810691,15.4890413 C76.0049223,15.3261829 75.8293078,15.1582747 75.6419856,15.0349736 C75.5903655,15.0008869 75.4626458,15.0812641 75.4339089,15.1641662 C75.2535049,15.6901946 75.2279609,16.2717716 75.2354112,16.857136 C75.2362095,16.907214 75.2745254,16.9749664 75.3059231,16.999795 C75.3399817,17.025886 75.401979,17.0401939 75.4259264,17.0098947 C75.681898,16.6841779 75.9381356,16.3567778 76.1810691,16.0074949 C76.2278996,15.9401633 76.2180545,15.7743591 76.2342856,15.653583 M73.0908318,17.6352113 C73.0908318,17.3193598 73.1224896,17.0732841 72.940457,17.0062994 C72.8623448,16.9779239 72.7319282,17.086774 72.6579452,17.1802735 C71.875102,18.168763 71.2653445,19.4228655 70.2309591,20.0252626 C70.0912517,20.1062025 70.0499588,20.6416149 70.1425236,20.8332656 C70.2577994,21.0714334 70.4202179,21.0137521 70.5719691,20.9225785 C71.1160021,20.5974236 71.6552177,20.2573832 72.200283,19.9354845 C72.5750155,19.7149932 72.8134816,19.3693708 72.8847117,18.806048 C72.9394247,18.3752992 73.0333659,17.9533886 73.0908318,17.6352113 M33.7225837,16.0026656 C32.9644811,16.0375197 31.6691552,16.106763 30.3738294,16.155094 C27.8814502,16.2480381 25.388447,16.2949749 22.8970037,16.4241672 C19.4593361,16.6026199 16.0232284,16.8475276 12.5861848,17.0482869 C10.2444901,17.1853795 7.90217157,17.3006302 5.56016497,17.4079806 C5.37079532,17.4163456 5.16052324,17.3340901 4.99423984,17.2007153 C4.88879183,17.1161361 4.79582287,16.8610045 4.78958334,16.6751163 C4.78303184,16.4836514 4.85291454,16.2071427 4.95274698,16.1053689 C5.10811121,15.9468992 5.31463957,15.8395487 5.50369725,15.8232835 C7.39520997,15.6685315 9.28672269,15.508203 11.1794833,15.405035 C15.962393,15.1443267 20.7456147,14.8836185 25.5300843,14.6805356 C28.7690229,14.5429783 32.0098334,14.4913943 35.25002,14.4258687 C37.493754,14.3798614 39.7378001,14.3524429 41.9818461,14.3570901 C46.6190628,14.3668492 51.2584634,14.2971412 55.8938083,14.4611875 C59.6796415,14.595027 63.4689065,14.7869566 67.2438205,15.3172028 C67.7891552,15.393417 68.3313701,15.5216798 68.8760809,15.6090473 C69.2239345,15.6652785 69.4264072,15.3920228 69.4379503,14.8301756 C69.4601006,13.7162404 69.4625964,12.6023052 69.4806911,11.48837 C69.4853707,11.1942019 69.507833,10.8986396 69.5412145,10.608654 C69.5764678,10.301009 69.8968675,9.95386271 70.1074516,10.0110233 C70.3489213,10.0765489 70.5978784,10.1467217 70.8206296,10.2917146 C71.8704301,10.9767127 72.9189826,11.6668227 73.9556801,12.3941104 C75.3071617,13.3430698 76.6486601,14.3250244 77.9910944,15.3037259 C78.2129096,15.4654487 78.4253655,15.6657432 78.6259663,15.8813736 C78.8365504,16.1086219 78.8443498,16.8540337 78.643437,17.0929001 C78.4893207,17.276 78.3277169,17.4595646 78.1511383,17.5845745 C76.2621214,18.9266875 74.3687368,20.2548588 72.478472,21.5918599 C72.0286021,21.9097288 71.5912112,22.2675636 71.1366616,22.5677731 C70.8658661,22.7471553 70.5760401,22.8703062 70.2883979,22.9823039 C70.0016916,23.0929074 69.6373032,22.7815446 69.5936265,22.3563253 C69.5256157,21.7001398 69.4828749,21.03466 69.4638443,20.371039 C69.4404461,19.5568486 69.4654042,18.7394051 69.4429419,17.9247499 C69.4342066,17.6161755 69.2991208,17.3638322 69.0744978,17.3196837 C68.1856772,17.1454135 67.2981044,16.9172357 66.4049161,16.8354449 C64.1162574,16.6263206 61.8235431,16.5203644 59.5348845,16.3093812 C54.2546844,15.8218893 48.9682449,15.9547994 43.6836772,15.910651 C40.5423871,15.8841619 37.4010971,15.9645586 33.7225837,16.0026656" id="Fill-61-Copy-2" fill="#000000" transform="translate(41.789158, 16.504796) rotate(-344.000000) translate(-41.789158, -16.504796) "></path>
                <text id="Ownership" transform="translate(35.500000, 32.500000) rotate(15.000000) translate(-35.500000, -32.500000) " font-family="Noteworthy-Light, Noteworthy" font-size="14" font-weight="300" fill="#000000">
                    <tspan x="3" y="37">Ownership</tspan>
                </text>
                <g id="UI-/-Icons-/-product_owner" transform="translate(108.000000, 0.000000)">
                    <g id="Group-2-Copy-3">
                        <path d="M21,1.80555572 C12.2836813,1.80555572 5.21536105,8.91418713 5.21536105,17.6860064 C5.21536105,22.3003989 7.18109514,26.5924931 10.5504556,29.5876986 L11.4378534,30.3765541 L10.5208294,31.1307655 C4.69881435,35.9191133 1.01536105,44.2863881 1.01536105,53.167211 C1.01536105,59.0105182 9.66249962,62.9344452 20.9967249,62.8978864 C32.2948201,62.8614441 40.9846389,58.8994634 40.9846389,53.167211 C40.9846389,44.2860366 37.3009384,35.9189458 31.478731,31.1323427 L30.5615166,30.3782746 L31.4488393,29.5892501 C34.8189152,26.5925134 36.7846389,22.3004026 36.7846389,17.6860064 C36.7846389,8.91418713 29.7163187,1.80555572 21,1.80555572 Z" id="Path" stroke="#005CFF" stroke-width="2.03072211" fill="#FFFFFF" fill-rule="nonzero"></path>
                        <text id="PO" font-family="Noteworthy-Light, Noteworthy" font-size="16" font-weight="300" fill="#005CFF">
                            <tspan x="10.5002632" y="53.7476568">PO</tspan>
                        </text>
                    </g>
                </g>
            </g>
        </g>
    </g>
</svg>